<svg xmlns="http://www.w3.org/2000/svg" xmlns:xlink="http://www.w3.org/1999/xlink" viewBox="0 0 253.5 390"><defs><style>.cls-1{fill:#fff;}.cls-2{fill:none;stroke:#000;stroke-miterlimit:10;stroke-width:8px;}.cls-3{mask:url(#mask);}.cls-4{filter:url(#luminosity-noclip);}</style><filter id="luminosity-noclip" x="-65" y="-40.99" width="395" height="533.16" filterUnits="userSpaceOnUse" color-interpolation-filters="sRGB"><feFlood flood-color="#fff" result="bg"/><feBlend in="SourceGraphic" in2="bg"/></filter><mask id="mask" x="-65" y="-40.99" width="395" height="533.16" maskUnits="userSpaceOnUse"><g class="cls-4"><rect class="cls-1" x="-65" y="-14" width="395" height="404"/><path class="cls-2" d="M-21,213c67.29,5.5,127.21,35.6,166.24,81.82A199,199,0,0,1,178,349c25.13,62.45,10.64,120.4,4,142"/><path class="cls-2" d="M-10,119c90.87,7.42,168.31,59.72,199,136"/><path class="cls-2" d="M-36,33c90.87,7.42,168.31,59.72,199,136"/><path class="cls-2" d="M-46-37C44.87-29.58,122.31,22.72,153,99c.25.62.49,1.23.73,1.85"/><path class="cls-2" d="M310.21,213c-67.49,5.51-127.57,35.78-166.59,82.24"/><path class="cls-2" d="M294.21,119c-59.62,4.87-113.46,29.06-152.1,66.66"/><path class="cls-2" d="M296.21,43c-64.83,5.3-122.82,33.43-161.88,76.82"/><path class="cls-2" d="M302.21-23c-68.84,5.62-130,37-168.91,85.05"/></g></mask></defs><g id="レイヤー_2" data-name="レイヤー 2"><g id="レイヤー_3のコピー" data-name="レイヤー 3のコピー"><g class="cls-3"><path d="M253.5,229.75C253.5,102.86,127,0,127,0S.5,102.86.5,229.75C.5,233,1,347,1,347H253S253.5,233,253.5,229.75Z"/></g><rect y="354" width="253" height="36"/></g></g></svg>